<svg id="Capa_1" data-name="Capa 1" xmlns="http://www.w3.org/2000/svg" viewBox="0 0 350.31 238.81"><defs><style>.cls-1{fill:#fff;}</style></defs><title>letra</title><path class="cls-1" d="M911.56,85c1.35.32,2.68.69,4,1.11a21.79,21.79,0,0,1,3.91,1.69,21.25,21.25,0,0,1,2.17,1.64,9.72,9.72,0,0,1,1.79,2,8.91,8.91,0,0,1,.87,1.93,4.29,4.29,0,0,1,.09,2,2.89,2.89,0,0,1-1.54,2.17,2.6,2.6,0,0,1-2.61-.43l-1.64-1.06a7.2,7.2,0,0,0-1.73-.87,9.65,9.65,0,0,0-3-.68,16.36,16.36,0,0,0-3,.1,1.74,1.74,0,0,0-.72.29c-.16.13-.15.39.05.77a9.08,9.08,0,0,1,.86,3.38,18.92,18.92,0,0,1-.09,3.38c-.13,1.29-.26,2.54-.39,3.76s-.32,2.48-.58,3.77q-2.31,14-5.11,27.7t-6.47,27.5q-1.83,6.85-3.28,13.66t-2.9,13.75a1.32,1.32,0,0,1-.09.44.47.47,0,0,0,0,.43.42.42,0,0,0,.19.34.65.65,0,0,0,.29.14,2.73,2.73,0,0,0,.72-.09l.63-.2q4.63-1.06,9.17-1.78a45.26,45.26,0,0,1,9.17-.53c.9.06,1.75.16,2.56.29l2.55.38a9.79,9.79,0,0,1,1.94,1.06,3.47,3.47,0,0,1,1.15,2,3.14,3.14,0,0,1-4.63,3.28,1.88,1.88,0,0,0-1.45-.19,24.67,24.67,0,0,0-4.15.67q-8.38,2-16.4,4.49t-16,5.55q-2.89,1.15-5.74,2.46l-5.64,2.56-1.26.53c-.38.16-.77.31-1.16.44a2.89,2.89,0,0,1-3.28-1,2.83,2.83,0,0,1-.48-3.47,8.78,8.78,0,0,1,.87-1.26c.32-.38.64-.74,1-1.06.78-.64,1.56-1.26,2.37-1.83a28.5,28.5,0,0,1,2.55-1.64c1.81-1,3.62-2,5.46-2.9l5.55-2.7a3.31,3.31,0,0,0,1.2-.73,2.92,2.92,0,0,0,0-1.4,25.43,25.43,0,0,1-.58-5.4c0-1.8.06-3.6.19-5.41s.29-3.33.48-5,.42-3.26.68-4.87c.19-1.87.42-3.73.67-5.6s.49-3.73.68-5.6a119.77,119.77,0,0,1,2.22-12.78q1.44-6.33,3-12.69,2.51-9.56,5.21-18.92t6-18.72q.38-.87.72-1.74c.22-.58.47-1.19.72-1.83a1.89,1.89,0,0,0,.1-.63,2.78,2.78,0,0,1,.1-.73,2.78,2.78,0,0,1-.73.1,1.79,1.79,0,0,0-.62.1l-2.56.72-2.46.72c-1.23.33-2.42.68-3.57,1.07s-2.32.74-3.48,1.06a15.15,15.15,0,0,1-1.54.48,6.32,6.32,0,0,1-1.55.19,3.41,3.41,0,0,1-2.75-1.2,3.52,3.52,0,0,1-.72-3,6.23,6.23,0,0,1,.67-1.59c.33-.54.65-1,1-1.5.58-.57,1.19-1.14,1.83-1.68a11.68,11.68,0,0,1,2-1.4,42.68,42.68,0,0,1,23.93-6.47,5.16,5.16,0,0,1,1.36,0Z" transform="translate(-859.92 -28.1)"/><path class="cls-1" d="M973.61,120.47a4,4,0,0,1-.48.57,2.78,2.78,0,0,0-.48.68,112.51,112.51,0,0,0-9.85,16.7,133.74,133.74,0,0,0-7,18.05q-3.18,10.13-6.08,20.26a40.21,40.21,0,0,0-1.21,5c-.29,1.67-.63,3.35-1,5a17.82,17.82,0,0,1-1.16,3.57,5.84,5.84,0,0,1-3.91,3.43,6.08,6.08,0,0,1-5.07-1.11,10.87,10.87,0,0,1-2.12-2.17,18.88,18.88,0,0,1-1.54-2.56l-1.35-3.33a32.94,32.94,0,0,1-1.16-3.43,144.28,144.28,0,0,1-3.72-15.68,98,98,0,0,1-1.49-16.07q-.11-5.21.29-10.28T927.48,129q1.07-6.57,2.32-13T932.31,103a14,14,0,0,1,1.06-3.48,6.22,6.22,0,0,1,2.07-2.65,4.55,4.55,0,0,1,2.95-.82,5.16,5.16,0,0,1,4.73,3.86,14.66,14.66,0,0,1,.62,3c.1,1,.18,2,.24,3.14q.19,8.88,0,17.85-.19,6.27-.38,12.45t-.39,12.45q-.09,3.38-.09,6.71c0,2.22,0,4.45-.1,6.71a3.57,3.57,0,0,0,.48,1.73,5.68,5.68,0,0,0,.48-1.54,185.46,185.46,0,0,1,8.45-21.86Q957.31,130,962.8,119.5q1.26-2.22,2.75-4.34T968.6,111a12.76,12.76,0,0,1,1.49-1.64c.55-.52,1.11-1,1.69-1.45a6.9,6.9,0,0,1,5.79-1.16,7.23,7.23,0,0,1,4.54,3.86,16.5,16.5,0,0,1,1.16,3.43c.25,1.19.44,2.36.57,3.52q1.17,12.06,1.65,24a231.64,231.64,0,0,1-.29,24,7.49,7.49,0,0,0,0,2.41,2.73,2.73,0,0,0,.67,1.45,2.12,2.12,0,0,1,.58,2.51,2.83,2.83,0,0,1-2.41,1.54,3.14,3.14,0,0,1-1.84-.53,6.53,6.53,0,0,1-1.44-1.4q-1.07-1.64-2-3.33a15.19,15.19,0,0,1-1.4-3.62c-.26-1.22-.5-2.44-.73-3.66s-.4-2.48-.53-3.77q-.87-8.29-1.35-16.5t-.58-16.6c0-.58,0-1.16-.05-1.74s-.08-1.19-.14-1.83Z" transform="translate(-859.92 -28.1)"/><path class="cls-1" d="M1014.05,172c.39-.25.77-.49,1.16-.72a4.93,4.93,0,0,0,1.06-.82c.71-.64,1.4-1.29,2.08-1.93s1.33-1.32,2-2q3.66-4.14,6.94-8.49t6.37-9c.26-.45.49-.88.68-1.3a3.34,3.34,0,0,0,.29-1.4,2.86,2.86,0,0,1,1-2.36,13.3,13.3,0,0,1,2.08-1.4,1.28,1.28,0,0,1,1.49,0,2.13,2.13,0,0,1,.92,1.45,6,6,0,0,1-.19,2,9.11,9.11,0,0,0,0,4.92q.67,3.09,1.3,6.28c.42,2.12.88,4.21,1.4,6.27.13.58.26,1.14.39,1.69s.25,1.18.38,1.88c.52-.32,1-.63,1.35-.91a13.08,13.08,0,0,1,1.26-.83l1.2-.57a8.59,8.59,0,0,1,1.31-.49,1.72,1.72,0,0,1,2.12,2.13,12.4,12.4,0,0,1-1.4,3.33,8.4,8.4,0,0,1-2.46,2.55c-.06.07-.26.1-.58.1.19-.51.37-1,.53-1.54s.31-1,.44-1.55a.3.3,0,0,0-.2-.09q-.68.57-1.35,1.2a15.23,15.23,0,0,0-1.25,1.3,1.62,1.62,0,0,0-.24.73,6.72,6.72,0,0,0,0,.92q0,3.07.09,6t-.09,6a39.52,39.52,0,0,1-.68,6.13,37,37,0,0,1-1.64,5.93,28.68,28.68,0,0,1-6.85,11,21.83,21.83,0,0,1-4.05,2.89,14.31,14.31,0,0,1-4.73,1.55,10.31,10.31,0,0,1-4.73-.49A8.72,8.72,0,0,1,1015,203a19.09,19.09,0,0,1,1.83-6.37,40.55,40.55,0,0,1,2.9-5.35,56.58,56.58,0,0,1,3.57-5q3-3.67,6.32-7.1t7-6.51a4,4,0,0,0,1.15-1.5,3.14,3.14,0,0,0,.1-1.78q-.59-3.09-1.06-6.18t-1-6.18c-.06-.25-.13-.51-.19-.77s-.16-.58-.29-1c-.26.38-.48.71-.67,1a5.17,5.17,0,0,0-.49.77q-2.42,4.16-5,8.16a77.33,77.33,0,0,1-5.7,7.67,23.08,23.08,0,0,1-1.64,2,17.75,17.75,0,0,1-1.93,1.83,15.15,15.15,0,0,1-3.76,2.32,7.77,7.77,0,0,1-5.51.1,8.07,8.07,0,0,1-4.15-3.57,12.91,12.91,0,0,1-1.35-3.62c-.25-1.26-.45-2.53-.58-3.82a44.85,44.85,0,0,1,2-15.73,74.45,74.45,0,0,1,6.18-14.14,47.18,47.18,0,0,1,15-16.36,10.7,10.7,0,0,1,5.11-1.83,6.1,6.1,0,0,1,2,.14,3,3,0,0,1,1.88,3.14,3.7,3.7,0,0,1-.87,1.64c-.51.65-1,1.26-1.59,1.84s-1.11,1.12-1.69,1.64q-1.63,1.64-3.33,3.23T1026,135a49.2,49.2,0,0,0-8.16,12.84,56.24,56.24,0,0,0-4,14.57c-.13,1-.23,1.93-.29,2.89s-.13,1.93-.19,2.9a8,8,0,0,0,0,1.83c.06.58.12,1.16.19,1.74a.66.66,0,0,0,.29.1A.28.28,0,0,1,1014.05,172Zm24.23,6.57a.57.57,0,0,1-.39-.2,2,2,0,0,1-.34.29,2.52,2.52,0,0,0-.33.29l-4.83,5.6c-1.61,1.87-3.15,3.76-4.63,5.7a21.69,21.69,0,0,0-2.37,3.52c-.67,1.25-1.37,2.52-2.07,3.81a18.05,18.05,0,0,0-1.45,4.92q-.58,3,2.61,2.7a2.26,2.26,0,0,0,.67-.09,5.81,5.81,0,0,1,.68-.19,9.24,9.24,0,0,0,2.51-1.16,15,15,0,0,0,2.22-1.84,20.84,20.84,0,0,0,4.34-6.46,34.47,34.47,0,0,0,1.69-5c.42-1.68.75-3.38,1-5.12.13-1.09.24-2.22.34-3.38S1038.15,179.66,1038.28,178.57Z" transform="translate(-859.92 -28.1)"/><path class="cls-1" d="M1069.45,166.79a6.63,6.63,0,0,1,.39-.67,5.19,5.19,0,0,0,.38-.78q1.93-3.94,4.2-7.62t4.78-7.34c.25-.32.5-.64.72-1a4.49,4.49,0,0,1,.82-.87,1.24,1.24,0,0,1,1.26-.29c.32.13.49.31.53.53a2.66,2.66,0,0,1,0,.82c-.07.2-.13.39-.19.58a3.32,3.32,0,0,1-.2.48c-1.48,3.87-3,7.69-4.44,11.49s-3,7.62-4.44,11.48c-.25.58-.5,1.16-.72,1.74a15.16,15.16,0,0,1-.82,1.74,8.35,8.35,0,0,1-1.45,2.12,4.1,4.1,0,0,1-3.14,1.3,4.33,4.33,0,0,1-3.13-1.49,11.33,11.33,0,0,1-1.74-3.28,28.77,28.77,0,0,1-1.16-4.49c-.25-1.51-.45-3-.58-4.58a78.71,78.71,0,0,1,0-9.08c.16-3,.4-6,.72-9q.76-7.14,1.93-14.19t2.9-14.09l1-2.94c.32-1,.68-2,1.06-2.85a8.08,8.08,0,0,1,.92-1.45,7.92,7.92,0,0,1,1.21-1.25,2.62,2.62,0,0,1,1.93-.73,3.41,3.41,0,0,1,1.93.73,2.72,2.72,0,0,1,1.06,3.47,93.53,93.53,0,0,0-3.33,16.26q-.92,8.16-1.59,16.46c-.26,2.7-.46,5.39-.58,8.06s-.26,5.35-.39,8.06a6.37,6.37,0,0,0-.05,1.3c0,.42.05.82.05,1.21A.4.4,0,0,0,1069.45,166.79Z" transform="translate(-859.92 -28.1)"/><path class="cls-1" d="M1091.84,169.49a6,6,0,0,0,1.45-.86,37.13,37.13,0,0,0,3.91-3.29,29.17,29.17,0,0,0,3.33-3.86c1.54-2,3.08-4.15,4.63-6.27l4.63-6.37c.32-.38.63-.79.92-1.21a6.26,6.26,0,0,1,1-1.11q1.65-1.64,3.28-.48a2.38,2.38,0,0,1,.49,3.28c-.58,1.1-1.18,2.21-1.79,3.33s-1.24,2.24-1.88,3.33c-1,1.68-1.93,3.33-2.9,5s-1.93,3.3-2.89,5a38.65,38.65,0,0,1-7.72,9c-.65.51-1.31,1-2,1.45a12.83,12.83,0,0,1-2.17,1.15,6.88,6.88,0,0,1-5.12.34,6.59,6.59,0,0,1-3.86-3.33,11.73,11.73,0,0,1-1.45-4.34,14.93,14.93,0,0,1-.14-4.25,28.16,28.16,0,0,1,.82-4.15,103.58,103.58,0,0,1,5.55-15.05,65.16,65.16,0,0,1,8.44-13.61,26,26,0,0,1,2.61-3,4.08,4.08,0,0,1,4.24-1.16,3.89,3.89,0,0,1,2.71,3.47,16.18,16.18,0,0,1,.09,4c-.13,1-.24,1.93-.33,2.9a28.83,28.83,0,0,1-.44,2.89,21,21,0,0,1-2.41,6.61,28.74,28.74,0,0,1-4.25,5.65,14.74,14.74,0,0,1-6.95,3.86,2.33,2.33,0,0,0-1,.53,1.84,1.84,0,0,0-.43,1.11c-.13,1-.28,1.92-.44,2.85s-.3,1.88-.43,2.84A7,7,0,0,0,1091.84,169.49Zm2.8-18.14a9.89,9.89,0,0,0,3.62-2.65,20.39,20.39,0,0,0,2.85-4.11,15.19,15.19,0,0,0,1.54-4.53,7.61,7.61,0,0,0-.29-4.06A16,16,0,0,0,1100,139a39.2,39.2,0,0,0-2.37,4.05,41.24,41.24,0,0,0-1.93,4.39A16.94,16.94,0,0,0,1094.64,151.35Zm6.66-28.09a4.93,4.93,0,0,1-1.69-.43,2.71,2.71,0,0,1-1.21-1.21,2.88,2.88,0,0,1,.29-3.37,8.66,8.66,0,0,1,1.45-1.64,52.87,52.87,0,0,1,5.07-4.3c1.77-1.32,3.58-2.56,5.45-3.72a7.92,7.92,0,0,1,1.26-.67,11.44,11.44,0,0,1,1.35-.48,2.33,2.33,0,0,1,2.89,1,1.92,1.92,0,0,1,.53,1.4,3.28,3.28,0,0,1-.53,1.5,4.1,4.1,0,0,1-.77,1.06l-4.44,4.25q-2.22,2.11-4.44,4.15a6.09,6.09,0,0,1-1.26,1c-.45.26-.93.52-1.44.77a5.32,5.32,0,0,1-1.21.44C1102.18,123,1101.75,123.14,1101.3,123.26Z" transform="translate(-859.92 -28.1)"/><path class="cls-1" d="M1157.08,162.55a3,3,0,0,1-.91.58,2.24,2.24,0,0,0-.63.28,179.32,179.32,0,0,0-15.3,11.59,117.52,117.52,0,0,0-13.46,13.41,43.71,43.71,0,0,0-6.18,8.69,25.83,25.83,0,0,0-1.4,2.84,11.53,11.53,0,0,0-.82,3,2.51,2.51,0,0,0,.34,2.08,3.18,3.18,0,0,0,2.17.53l2.22-.19a13.19,13.19,0,0,0,2.22-.39l4.25-1.16c1.41-.38,2.83-.83,4.24-1.35a164.89,164.89,0,0,0,49.42-27.7,51.33,51.33,0,0,0,4-3.42q1.89-1.78,3.81-3.72a37.71,37.71,0,0,0,3.09-3.47,25,25,0,0,0,2.51-3.86,19.68,19.68,0,0,0,1.31-2.75,13.24,13.24,0,0,0,.72-2.85,7.24,7.24,0,0,0-2.8-6.95,17.51,17.51,0,0,0-3.42-2.22,19,19,0,0,0-3.72-1.35c-1.93-.52-3.88-1-5.84-1.5a41.24,41.24,0,0,0-6-1q-5.59-.78-11.25-1.3c-3.76-.36-7.54-.69-11.34-1q-6.36-.57-12.64-1.06t-12.55-1.54c-1.28-.26-2.54-.57-3.76-.92s-2.48-.69-3.76-1a10.79,10.79,0,0,1-2-.78l-1.93-1a15.47,15.47,0,0,1-6.42-6.42,13.47,13.47,0,0,1-.92-8.73,26.84,26.84,0,0,1,1.36-4.59,34.46,34.46,0,0,1,2.12-4.39,53.76,53.76,0,0,1,5.07-7.33,78.23,78.23,0,0,1,6.12-6.66A117.35,117.35,0,0,1,1146,79a141.1,141.1,0,0,1,24.27-11.34,31.44,31.44,0,0,1,9.66-2.31,18.45,18.45,0,0,1,3.23-.1,15,15,0,0,1,3.23.58,10.58,10.58,0,0,1,2.41,1,7.31,7.31,0,0,1,1.94,1.69,5.55,5.55,0,0,1,1.06,3.33,5.13,5.13,0,0,1-1.06,3.24,3.06,3.06,0,0,1-2.08,1.06,2,2,0,0,1-1.69-1.26,3.17,3.17,0,0,0-2.8-1.45,17.32,17.32,0,0,0-3.81.05,33.14,33.14,0,0,0-3.81.73,63.52,63.52,0,0,0-12.26,4.53,127.53,127.53,0,0,0-19.78,12.45,115.37,115.37,0,0,0-16.8,15.83,32.85,32.85,0,0,0-2.89,3.57q-1.35,1.93-2.51,3.86a12.14,12.14,0,0,0-1.21,2.56c-.29.87-.56,1.75-.82,2.65a3.72,3.72,0,0,0,.19,2.9,4.39,4.39,0,0,0,2.22,1.93c.9.39,1.85.77,2.85,1.16a19.45,19.45,0,0,0,2.94.87c2,.32,4,.56,6,.72s4,.31,6,.44q6.18.48,12.31.72t12.21.72q6,.39,11.72,1.26a89,89,0,0,1,11.44,2.51c1.48.45,2.93,1,4.34,1.49s2.83,1.15,4.25,1.79a20.79,20.79,0,0,1,4.54,2.51q5.79,3.85,7.76,9a20.05,20.05,0,0,1,.63,11.53,32.39,32.39,0,0,1-2.17,6.18,45.64,45.64,0,0,1-3.23,5.79A92,92,0,0,1,1191,185.81a185.31,185.31,0,0,1-19,14.33,207,207,0,0,1-20.79,12c-2.45,1.23-4.94,2.33-7.48,3.33s-5.17,1.92-7.87,2.75a55.16,55.16,0,0,1-7.58,1.4,33.38,33.38,0,0,1-7.86,0l-1.35-.19-1.35-.19a16.75,16.75,0,0,1-10.23-6.27,15,15,0,0,1-2.71-11.1,20.61,20.61,0,0,1,.73-3.86,32.8,32.8,0,0,1,1.3-3.67,39.93,39.93,0,0,1,5-8.78,109.15,109.15,0,0,1,35.51-31.08,34,34,0,0,1,3.67-1.84c1.22-.51,2.48-1,3.77-1.54a11.87,11.87,0,0,1,5.4-.87,7.64,7.64,0,0,1,5.31,2.22,6.22,6.22,0,0,1,1.64,5.12,12.79,12.79,0,0,1-1.25,3.95,19.29,19.29,0,0,1-2,4,26.59,26.59,0,0,1-2.75,3.48,12.25,12.25,0,0,1-1.6,1.49,4.26,4.26,0,0,1-1.88.82c-1.48.45-2.31-.06-2.51-1.54a4.77,4.77,0,0,1,0-2,15,15,0,0,1,.63-1.93C1156.21,164.83,1156.63,163.77,1157.08,162.55Z" transform="translate(-859.92 -28.1)"/><path class="cls-1" d="M968.27,72.63q0,3.7,0,6.56c0,1.91,0,3.75.06,5.53a11.6,11.6,0,0,0,.15,1.87c.1.62.2,1.24.28,1.88.06.23.13.46.22.71a3.55,3.55,0,0,0,.34.71,2.35,2.35,0,0,1-.09,2.45A2.23,2.23,0,0,1,967,93.41a2.74,2.74,0,0,1-1.25-.43,4.22,4.22,0,0,1-.94-.86,7.38,7.38,0,0,1-1.42-2.62c-.29-1-.56-1.9-.82-2.86s-.5-1.93-.73-2.91a30.92,30.92,0,0,1-.54-3.74c-.1-1.23-.18-2.49-.24-3.79-.05-2,0-3.93,0-5.87s.21-3.88.38-5.83c.06-.66,0-1-.06-1a2.87,2.87,0,0,0-.93.17c-1.4.4-2.8.82-4.19,1.25s-2.79.85-4.2,1.25a1.66,1.66,0,0,0-1.07,1q-1.12,3.22-2,6.47c-.61,2.17-1.19,4.36-1.77,6.57-.08.37-.18.74-.28,1.11s-.21.76-.32,1.17-.2.61-.34,1c-.26.63-.64.91-1.12.86a1,1,0,0,1-.71-.3,1.44,1.44,0,0,1-.33-.65,8.51,8.51,0,0,1-.25-1.68,18.86,18.86,0,0,1,.1-3.2c.13-1.05.28-2.12.46-3.21s.31-2.06.51-3.1.39-2,.56-3a1,1,0,0,0,0-.3c.12-.35,0-.46-.34-.35-.17.06-.36.13-.56.22-.86.34-1.71.69-2.56,1l-2.52,1.06a8.29,8.29,0,0,1-1.46.51,1.74,1.74,0,0,1-1.89-.64,1.59,1.59,0,0,1-.39-1,1.89,1.89,0,0,1,.3-1,5.34,5.34,0,0,1,1.12-1.24q.6-.53,1.23-1a10.56,10.56,0,0,1,1.31-.86q1.73-1,3.42-1.92c1.13-.61,2.29-1.22,3.46-1.83a1.81,1.81,0,0,0,.95-1.16,76.37,76.37,0,0,1,3.66-10,77.73,77.73,0,0,1,5-9.45,41.56,41.56,0,0,1,2.49-3.63,32.24,32.24,0,0,1,2.89-3.29,15.22,15.22,0,0,1,1.8-1.55,3.65,3.65,0,0,1,.76-.52l.83-.43a4,4,0,0,1,5.38,2.07,6.91,6.91,0,0,1,.73,3.27c0,1-.07,2-.12,3s-.13,2-.22,3l-.6,5.67q-.3,2.85-.65,5.68c0,.06,0,.11,0,.13,0,.38,0,.59,0,.65s.26.08.61.08l1.39.07a12.67,12.67,0,0,1,1.36.11,9.68,9.68,0,0,1,2.06.6,3.46,3.46,0,0,1,1.64,1.59,3,3,0,0,1,.34,1.85,2.85,2.85,0,0,1-.86,1.68,4,4,0,0,1-2.32,1.25,1.47,1.47,0,0,1-1.81-1c-.08-.23-.23-.32-.43-.26-.37.06-.75.13-1.12.21s-.74.16-1.12.22-.47.23-.47.6-.06.91-.08,1.34-.06.87-.09,1.33q-.13,2.33-.24,4.41C968.39,70.69,968.33,71.8,968.27,72.63ZM965,40.37a.79.79,0,0,1-.05-.24.38.38,0,0,0,0-.19,2.47,2.47,0,0,0-.34.25,2.35,2.35,0,0,0-.22.26c-.06.09-.11.19-.17.3a93.72,93.72,0,0,0-9.55,17.3l-.13.26c-.06.17-.07.28,0,.32s.16,0,.36,0l.3-.09,6.46-1.81a1.67,1.67,0,0,0,.69-.28,2.14,2.14,0,0,0,.17-.66c.28-1.72.56-3.43.84-5.12s.55-3.4.84-5.12c.14-.86.28-1.72.43-2.58S964.81,41.23,965,40.37Z" transform="translate(-859.92 -28.1)"/><path class="cls-1" d="M989.78,49.53q-.21,2.23-.45,4.62t-.45,4.8a1.66,1.66,0,0,1,0,.24.85.85,0,0,0,0,.23,1.09,1.09,0,0,0,0,.26c0,.09,0,.16,0,.22a.82.82,0,0,0,.43-.13,4.54,4.54,0,0,1,.58-.41,2.94,2.94,0,0,0,.54-.41c1.09-.74,2.19-1.43,3.31-2.06a32.14,32.14,0,0,1,3.44-1.68,2.49,2.49,0,0,0,.58-.41,1.24,1.24,0,0,0,.28-.62c.72-2.44,1.46-4.87,2.22-7.27s1.51-4.84,2.26-7.28a7.39,7.39,0,0,1,.32-1c.13-.33.26-.66.41-1,0-.14.12-.28.19-.43a2.55,2.55,0,0,1,.24-.39,1.41,1.41,0,0,1,1.37-.51,1.73,1.73,0,0,1,.69.45,1.56,1.56,0,0,1,.35.8,4.57,4.57,0,0,1,0,.75c0,.27,0,.52-.07.75-.14,1-.28,2-.43,3s-.28,2-.43,3c-.25,1.2-.51,2.42-.75,3.65s-.47,2.46-.67,3.66a2.15,2.15,0,0,0-.06.82c0,.11.25.27.62.47a1.75,1.75,0,0,1,1,1.42,1.63,1.63,0,0,1-.66,1.55,3.54,3.54,0,0,1-.48.2.91.91,0,0,1-.56-.07q-.46-.16-.6-.09a1.05,1.05,0,0,0-.21.56c-.09.43-.18.86-.26,1.27a8.64,8.64,0,0,1-.35,1.23q-.76,3.91-1.59,7.81c-.54,2.59-1.07,5.2-1.59,7.81-.17.91-.3,1.83-.39,2.73s-.18,1.83-.3,2.77a4.19,4.19,0,0,0-.11.65,1.32,1.32,0,0,1-.19.64,1.27,1.27,0,0,1-.79.86A1.75,1.75,0,0,1,996,83a1.78,1.78,0,0,1-.86-.64,5.05,5.05,0,0,1-.56-1,7,7,0,0,1-.35-1.59,15.26,15.26,0,0,1-.08-1.68c0-1.29,0-2.56.17-3.82s.27-2.53.47-3.79.51-2.81.76-4.22.49-2.79.75-4.17v-.39a.32.32,0,0,1-.22,0,.23.23,0,0,0-.21.07L992,65c-1.26,1.07-2.53,2.16-3.79,3.28a.56.56,0,0,0-.26.34l-.17.56-.69,4.39c-.23,1.46-.41,2.95-.56,4.47-.17,1.26-.28,2.53-.34,3.79s-.06,2.54,0,3.83a1,1,0,0,0,0,.43c0,.14.06.28.08.43a1.6,1.6,0,0,1-.47,1.89,1.38,1.38,0,0,1-1,.45,2.19,2.19,0,0,1-1-.19,2.79,2.79,0,0,1-1.29-1.34c-.17-.37-.34-.76-.49-1.16a7.87,7.87,0,0,1-.37-1.2,19.72,19.72,0,0,1-.45-3c-.07-1-.12-2-.15-3,0-.58-.05-1.15-.06-1.7s0-1.13,0-1.7a.8.8,0,0,0-.12-.35,1.91,1.91,0,0,0-.39.17,6.12,6.12,0,0,0-.5.39,6.16,6.16,0,0,1-.53.43c-.15.09-.31.17-.5.26l-.54.26a1.74,1.74,0,0,1-2.06-.48,2.06,2.06,0,0,1-.5-1.07A2.42,2.42,0,0,1,976,74l.45-.86c.16-.29.33-.56.5-.82,1.35-1.63,2.75-3.3,4.22-5,.14-.23.26-.44.36-.64a3.06,3.06,0,0,0,.24-.74q.6-3.64,1.18-7.22t1.18-7.23c.38-2.09.74-4.17,1.1-6.22s.71-4.14,1-6.26q.13-.51.24-1t.24-1a1.65,1.65,0,0,1,1.59-1.37,1.75,1.75,0,0,1,1.12.3,1.85,1.85,0,0,1,.73,1,7.24,7.24,0,0,1,.26,2l-.09,2.39c0,.79,0,1.57-.08,2.34-.06.92-.13,1.84-.22,2.78S989.89,48.44,989.78,49.53Z" transform="translate(-859.92 -28.1)"/><path class="cls-1" d="M1006.09,63.34a31.48,31.48,0,0,1,.28-3.57,32.7,32.7,0,0,1,.62-3.36,1.09,1.09,0,0,0-.08-1,1.56,1.56,0,0,1-.28-1,3.05,3.05,0,0,1,.19-1c.14-.43.29-.85.43-1.27a7,7,0,0,1,.56-1.22q1-2,2.11-3.92c.71-1.29,1.49-2.55,2.32-3.78l1-1.62c.33-.53.68-1.07,1-1.61a12,12,0,0,1,1-1.31c.37-.42.76-.83,1.16-1.23a3.25,3.25,0,0,1,2.8-1.16.5.5,0,0,0,.38-.07,2.36,2.36,0,0,0,.39-.23,30.36,30.36,0,0,1,3.55-2,27,27,0,0,1,3.76-1.49,23.35,23.35,0,0,1,2.78-.75,14.23,14.23,0,0,1,2.86-.28,8.3,8.3,0,0,1,5.81,2,8.52,8.52,0,0,1,2.75,5.53,16.9,16.9,0,0,1,.07,3.55,28.12,28.12,0,0,1-.54,3.54,43.23,43.23,0,0,1-1.38,4.87,48.89,48.89,0,0,1-1.89,4.69,56.47,56.47,0,0,1-4.76,8.32,54.83,54.83,0,0,1-6.08,7.34,21.38,21.38,0,0,1-2.2,2.06,17.71,17.71,0,0,1-2.45,1.68c-.49.29-1,.55-1.51.8a14.16,14.16,0,0,1-1.54.62,8.63,8.63,0,0,1-4.89.28,9.87,9.87,0,0,1-4.24-2.43,12.48,12.48,0,0,1-3.57-6.41A21.09,21.09,0,0,1,1006.09,63.34Zm6.19-.52c0,.41,0,.8,0,1.19a11.71,11.71,0,0,0,0,1.18,14.29,14.29,0,0,0,.35,2.19,10,10,0,0,0,.73,2.07q1.59,3.27,4.9,1.76a10.09,10.09,0,0,0,1.4-.79,13.71,13.71,0,0,0,1.27-1,34.25,34.25,0,0,0,3.92-4.39,63.49,63.49,0,0,0,3.91-5.81,68.52,68.52,0,0,0,3.27-6.19c.49-1.09,1-2.2,1.38-3.32s.81-2.26,1.16-3.44A17.38,17.38,0,0,0,1035,44a13.15,13.15,0,0,0,.11-2.25,9.73,9.73,0,0,0-.09-1.34,5,5,0,0,0-.34-1.25A1.7,1.7,0,0,0,1033,38a9.37,9.37,0,0,0-2.24.25,16,16,0,0,0-2.45.8c-.77.33-1.53.7-2.28,1.1a43.18,43.18,0,0,0-5.61,3.48c-1.77,1.29-3.48,2.67-5.15,4.13a2.45,2.45,0,0,0-.55.91c-.21.74-.41,1.47-.61,2.19s-.37,1.45-.51,2.19c-.41,1.64-.74,3.26-1,4.87A23.73,23.73,0,0,0,1012.28,62.82Z" transform="translate(-859.92 -28.1)"/><path class="cls-1" d="M1046.4,62a2,2,0,0,0-.47.64c-.41.6-.78,1.2-1.12,1.79s-.68,1.21-1,1.87a2.08,2.08,0,0,0-.3.71l-.18.71c-.2.89-.64,1.36-1.33,1.42a1.09,1.09,0,0,1-.9-.35,1.81,1.81,0,0,1-.48-1.11,5,5,0,0,1,0-1.73,16.26,16.26,0,0,1,.88-2.94,26,26,0,0,1,1.35-2.82,43.42,43.42,0,0,1,2.37-3.92q1.29-1.89,2.75-3.7a4,4,0,0,0,.86-1.8q1-4,2.22-7.92c.79-2.61,1.66-5.2,2.6-7.79.26-.74.55-1.47.86-2.19s.63-1.42,1-2.11a3.6,3.6,0,0,1,.86-1.29,2,2,0,0,1,2.32-.65,2.08,2.08,0,0,1,1.47,1.94,8.27,8.27,0,0,1-.05.86c0,.29-.07.58-.12.86-.21.92-.43,1.84-.67,2.76s-.48,1.83-.71,2.75c-.17.66-.35,1.33-.52,2s-.33,1.34-.47,2a.22.22,0,0,0,0,.24.44.44,0,0,1,0,.23l.21-.08a.54.54,0,0,0,.22-.13c1-.75,2-1.5,3-2.26s2-1.5,3-2.22a39.74,39.74,0,0,1,8.65-4.64,18.28,18.28,0,0,1,5.81-1.51,9.44,9.44,0,0,1,1.59,0,6.15,6.15,0,0,1,1.55.3,4,4,0,0,1,2.23,1.63,4.16,4.16,0,0,1,.56,2.76,8.11,8.11,0,0,1-.45,1.87,11.31,11.31,0,0,1-.8,1.74,23.8,23.8,0,0,1-3.09,4.65l-3.51,4.09c-1.16,1.34-2.37,2.68-3.63,4q-3.84,4.08-7.73,8t-7.81,7.94a.94.94,0,0,1-.21.34,1,1,0,0,0-.22.39,1.51,1.51,0,0,0,.39,0l.39-.09a32.14,32.14,0,0,1,8.26-.39,18.36,18.36,0,0,1,4.69,1A21.33,21.33,0,0,1,1075,72a5.2,5.2,0,0,1,.86.67c.26.24.5.47.73.71a2.51,2.51,0,0,1,.65,1.72,1.31,1.31,0,0,1-.78,1.16.88.88,0,0,1-1.16-.48,3.59,3.59,0,0,0-1.1-.88c-.41-.21-.85-.42-1.31-.62a18.7,18.7,0,0,0-4.43-1.16,26.5,26.5,0,0,0-4.56-.22,31.71,31.71,0,0,0-4.43.65c-1.44.31-2.87.69-4.3,1.12-.75.22-1.46.46-2.13.71l-2,.71a1.16,1.16,0,0,0-.69.43,1.94,1.94,0,0,0-.3.77c-.2,1.23-.41,2.47-.62,3.72s-.44,2.5-.67,3.77l-.15.77a4.11,4.11,0,0,1-.19.73,2,2,0,0,1-.67,1.1,1.69,1.69,0,0,1-1.1.41,1.85,1.85,0,0,1-1.22-.28,1.9,1.9,0,0,1-.8-1.1,5.91,5.91,0,0,1-.28-1,2.55,2.55,0,0,1,0-1c0-.86,0-1.72,0-2.6s0-1.74.06-2.6a1.77,1.77,0,0,0,0-.71,1.34,1.34,0,0,0-.43-.58,1.79,1.79,0,0,1-.73-1.16,2.45,2.45,0,0,1,.21-1.47c.18-.31.37-.63.59-.94s.4-.65.58-1a3.08,3.08,0,0,0,.34-.52,1.18,1.18,0,0,0,.13-.56c.29-1.63.53-3.28.73-5s.42-3.31.65-4.94A1.6,1.6,0,0,0,1046.4,62Zm7.36-3.66h.08c-.23,1-.43,2-.62,3s-.4,2-.63,3a.42.42,0,0,0,0,.32,1.59,1.59,0,0,1,0,.36,1.86,1.86,0,0,1,.28-.21,1.91,1.91,0,0,0,.24-.17q4.31-4,8.5-7.9t8.41-7.94q1.93-1.8,3.74-3.72a51.25,51.25,0,0,0,3.44-4,17.66,17.66,0,0,0,1.21-1.53c.37-.53.73-1.07,1.07-1.61a2.25,2.25,0,0,0,.39-.73c.09-.26.19-.53.3-.82s0-.6-.43-.52-.74.23-1.12.33a9,9,0,0,0-1.07.36l-3,1.36a31.58,31.58,0,0,0-2.82,1.48,73.34,73.34,0,0,0-8.32,5.42,85.16,85.16,0,0,0-7.6,6.46,2.07,2.07,0,0,0-.73,1.2c-.2,1-.42,2-.66,3S1054,57.4,1053.76,58.35Z" transform="translate(-859.92 -28.1)"/><path class="cls-1" d="M1105.34,72.63q0,3.7,0,6.56c0,1.91,0,3.75.06,5.53a10.57,10.57,0,0,0,.16,1.87c.1.62.19,1.24.28,1.88a5.59,5.59,0,0,0,.21.71,3.6,3.6,0,0,0,.35.71,2.37,2.37,0,0,1-.09,2.45,2.26,2.26,0,0,1-2.2,1.07,2.69,2.69,0,0,1-1.24-.43,4.26,4.26,0,0,1-.95-.86,7.54,7.54,0,0,1-1.42-2.62c-.29-1-.56-1.9-.82-2.86s-.5-1.93-.73-2.91a30.92,30.92,0,0,1-.54-3.74c-.1-1.23-.18-2.49-.23-3.79q-.09-3,0-5.87c.09-1.93.22-3.88.39-5.83.05-.66,0-1-.07-1a2.79,2.79,0,0,0-.92.17c-1.41.4-2.81.82-4.2,1.25s-2.79.85-4.19,1.25a1.65,1.65,0,0,0-1.08,1c-.74,2.15-1.42,4.31-2,6.47s-1.19,4.36-1.76,6.57c-.09.37-.18.74-.28,1.11s-.21.76-.33,1.17-.2.61-.34,1c-.26.63-.63.91-1.12.86a1.09,1.09,0,0,1-.71-.3,1.42,1.42,0,0,1-.32-.65,7.84,7.84,0,0,1-.26-1.68,17.87,17.87,0,0,1,.11-3.2q.2-1.58.45-3.21c.14-1,.32-2.06.52-3.1s.38-2,.56-3a1.36,1.36,0,0,0,0-.3c.11-.35,0-.46-.35-.35l-.56.22q-1.29.51-2.55,1l-2.52,1.06a8.58,8.58,0,0,1-1.46.51,1.75,1.75,0,0,1-1.9-.64,1.57,1.57,0,0,1-.38-1,1.89,1.89,0,0,1,.3-1,4.93,4.93,0,0,1,1.12-1.24c.4-.35.81-.68,1.22-1a12.3,12.3,0,0,1,1.31-.86q1.72-1,3.42-1.92c1.14-.61,2.29-1.22,3.47-1.83a1.79,1.79,0,0,0,.94-1.16,78.49,78.49,0,0,1,8.65-19.49,44,44,0,0,1,2.5-3.63,33.41,33.41,0,0,1,2.88-3.29,15.33,15.33,0,0,1,1.81-1.55,3.86,3.86,0,0,1,.75-.52l.84-.43a4,4,0,0,1,5.38,2.07,7,7,0,0,1,.73,3.27c0,1-.07,2-.13,3s-.13,2-.22,3l-.6,5.67q-.3,2.85-.64,5.68a.16.16,0,0,1,0,.13c0,.38,0,.59,0,.65s.25.08.6.08l1.4.07a12.69,12.69,0,0,1,1.35.11,9.93,9.93,0,0,1,2.07.6,3.49,3.49,0,0,1,1.63,1.59,3,3,0,0,1,.35,1.85,3,3,0,0,1-.86,1.68,4.1,4.1,0,0,1-2.33,1.25,1.47,1.47,0,0,1-1.81-1c-.08-.23-.22-.32-.42-.26-.38.06-.75.13-1.12.21s-.75.16-1.12.22-.48.23-.48.6,0,.91-.08,1.34-.06.87-.09,1.33c-.08,1.55-.16,3-.23,4.41S1105.4,71.8,1105.34,72.63ZM1102,40.37a.75.75,0,0,1,0-.24.38.38,0,0,0,0-.19,3.36,3.36,0,0,0-.34.25,2.35,2.35,0,0,0-.22.26l-.17.3a94.31,94.31,0,0,0-9.55,17.3l-.13.26c-.06.17-.06.28,0,.32s.16,0,.37,0l.3-.09,6.45-1.81a1.67,1.67,0,0,0,.69-.28,1.87,1.87,0,0,0,.17-.66c.29-1.72.57-3.43.84-5.12s.55-3.4.84-5.12c.14-.86.29-1.72.43-2.58S1101.89,41.23,1102,40.37Z" transform="translate(-859.92 -28.1)"/><path class="cls-1" d="M1120.57,77.28a1.71,1.71,0,0,1,1.14.06,1.54,1.54,0,0,1,.8.84,3.91,3.91,0,0,1,.19.58c0,.19.09.38.15.58a1.68,1.68,0,0,1-1,1.64,1.49,1.49,0,0,1-1.76-.6,2.84,2.84,0,0,1-.56-1.21,1.43,1.43,0,0,1,.15-1.18A1.49,1.49,0,0,1,1120.57,77.28Zm15.19-49a1.5,1.5,0,0,1,1,1.47,5.62,5.62,0,0,1-.08.92,8.08,8.08,0,0,1-.22.88c-.34,1.21-.7,2.41-1,3.62s-.71,2.41-1.06,3.61q-2.06,7.32-4.13,14.54t-4.13,14.59a7.56,7.56,0,0,0-.32,1.22q-.1.63-.24,1.23c-.06.23-.11.43-.17.6a1.9,1.9,0,0,1-1,1.19,1.8,1.8,0,0,1-1.55-.07,2.45,2.45,0,0,1-1.38-1.55,6.19,6.19,0,0,1-.17-.94,2.54,2.54,0,0,0-.13-.69,24.56,24.56,0,0,1,.37-3.32c.18-1,.39-2,.62-3q1.2-5,2.69-9.7t3.16-9.57q1-2.93,2-5.79t2.17-5.74a9.78,9.78,0,0,1,.49-1.14c.19-.36.38-.74.58-1.14a3.22,3.22,0,0,1,.33-.45,2.27,2.27,0,0,1,.41-.41A1.53,1.53,0,0,1,1135.76,28.23Z" transform="translate(-859.92 -28.1)"/><path class="cls-1" d="M940.61,266.55h-4.48a1.88,1.88,0,0,1-1.2-.35,1.53,1.53,0,0,1-.56-1L933,258.51H921l-3,6.73a2.56,2.56,0,0,1-.81.91,2.05,2.05,0,0,1-1.25.4h-4.54L927,234.33h5.9Zm-17.78-12.12h9.38l-2.19-11c-.12-.54-.23-1.1-.35-1.69s-.23-1.27-.34-2c-.28.74-.56,1.43-.83,2.06s-.53,1.19-.77,1.66Z" transform="translate(-859.92 -28.1)"/><path class="cls-1" d="M953.51,261.89v-.36q0-.21,0-.63c0-.27.06-.64.12-1.09s.12-1,.21-1.75l1.27-10.25H953a.86.86,0,0,1-.62-.23,1,1,0,0,1-.23-.7.34.34,0,0,1,0-.09,2.86,2.86,0,0,0,0-.3c0-.16,0-.4.08-.71s.09-.75.15-1.31l3.47-.6,1.83-6.24a1.27,1.27,0,0,1,.46-.69,1.22,1.22,0,0,1,.79-.25h2.94l-.89,7.2h5.52l-.46,3.92h-5.55l-1.23,10c-.07.61-.13,1.09-.17,1.45s-.06.64-.08.84,0,.34,0,.42a1.31,1.31,0,0,0,0,.17,2,2,0,0,0,.41,1.33,1.45,1.45,0,0,0,1.17.49,2.36,2.36,0,0,0,.8-.12,3.56,3.56,0,0,0,.58-.26,4.31,4.31,0,0,0,.44-.25.7.7,0,0,1,.37-.12.61.61,0,0,1,.39.12,1,1,0,0,1,.25.37l1.18,2.67a8.77,8.77,0,0,1-2.72,1.52,9.18,9.18,0,0,1-3,.51,5.44,5.44,0,0,1-3.85-1.32A5,5,0,0,1,953.51,261.89Z" transform="translate(-859.92 -28.1)"/><path class="cls-1" d="M975.15,243.69q-.45,3.76-.76,6.37t-.51,4.35c-.14,1.16-.24,2.07-.31,2.74s-.13,1.17-.17,1.51-.06.58-.07.69,0,.22,0,.29a3.2,3.2,0,0,0,.55,2.11,2.06,2.06,0,0,0,1.66.63,4,4,0,0,0,1.79-.47,6.91,6.91,0,0,0,1.78-1.37,11,11,0,0,0,1.6-2.17,15.3,15.3,0,0,0,1.25-2.83l1.42-11.85h5.51l-2.77,22.86h-2.78a2.48,2.48,0,0,1-.73-.1,2.1,2.1,0,0,1-.62-.3,1.39,1.39,0,0,1-.45-.51,1.58,1.58,0,0,1-.16-.74v-.09l.13-2.78a12.53,12.53,0,0,1-3.8,3.65,8.38,8.38,0,0,1-4.27,1.21,5.69,5.69,0,0,1-2.3-.46,4.77,4.77,0,0,1-1.78-1.33,6.1,6.1,0,0,1-1.13-2.15,9.7,9.7,0,0,1-.4-2.93c0-.29,0-.59,0-.89a7.68,7.68,0,0,1,.09-.93l1.71-14.51Z" transform="translate(-859.92 -28.1)"/><path class="cls-1" d="M1017.71,266.55h-2.9a1.53,1.53,0,0,1-1.8-1.65l.18-3.12a13.65,13.65,0,0,1-3.41,3.74,7,7,0,0,1-4.17,1.37,5.81,5.81,0,0,1-2.42-.52,5.51,5.51,0,0,1-2-1.52,7.52,7.52,0,0,1-1.31-2.54,12,12,0,0,1-.48-3.58,15.72,15.72,0,0,1,4.25-10.76,14.74,14.74,0,0,1,6.59-4.05,14.23,14.23,0,0,1,4.06-.57,21.42,21.42,0,0,1,3.09.23,13.64,13.64,0,0,1,3,.8Zm-9.94-4.17a3,3,0,0,0,1.79-.62,6.89,6.89,0,0,0,1.66-1.73,14.3,14.3,0,0,0,1.45-2.59,24.22,24.22,0,0,0,1.16-3.21l.87-6.91c-.4,0-.77-.07-1.11-.07a7.17,7.17,0,0,0-3.43.85,9.11,9.11,0,0,0-2.75,2.28,11.12,11.12,0,0,0-1.81,3.35,12.19,12.19,0,0,0-.66,4,6.34,6.34,0,0,0,.76,3.52A2.37,2.37,0,0,0,1007.77,262.38Z" transform="translate(-859.92 -28.1)"/><path class="cls-1" d="M1023.1,266.55l4-33.11h5.42l-4,33.11Z" transform="translate(-859.92 -28.1)"/><path class="cls-1" d="M1049.27,264.59a10.26,10.26,0,0,1-2.1,1.36,8.82,8.82,0,0,1-2.25.72,13.9,13.9,0,0,1-2.59.22,8.92,8.92,0,0,1-3.55-.68,7.39,7.39,0,0,1-2.66-1.93,8.3,8.3,0,0,1-1.66-3,12.66,12.66,0,0,1-.57-3.92,15.76,15.76,0,0,1,.89-5.32,14.22,14.22,0,0,1,2.49-4.45,12.32,12.32,0,0,1,3.81-3.08,10.36,10.36,0,0,1,4.82-1.15,8.44,8.44,0,0,1,3.86.81,8.34,8.34,0,0,1,2.85,2.4l-1.77,2.1a3.42,3.42,0,0,1-.45.37,1,1,0,0,1-.57.16,1.17,1.17,0,0,1-.69-.23c-.21-.16-.45-.32-.73-.5a4.85,4.85,0,0,0-1-.5,4.44,4.44,0,0,0-1.59-.24,4.67,4.67,0,0,0-2.43.69,6.65,6.65,0,0,0-2,2,10.55,10.55,0,0,0-1.41,3.06,14.29,14.29,0,0,0-.52,3.94,6,6,0,0,0,1.11,3.89,3.7,3.7,0,0,0,3,1.37,5.18,5.18,0,0,0,2.11-.37,6.62,6.62,0,0,0,1.41-.8c.39-.29.74-.56,1-.8a1.54,1.54,0,0,1,1-.37,1.13,1.13,0,0,1,.53.14,1.78,1.78,0,0,1,.45.37l1.41,1.7A20.71,20.71,0,0,1,1049.27,264.59Z" transform="translate(-859.92 -28.1)"/><path class="cls-1" d="M1071.3,266.55h-2.9a1.75,1.75,0,0,1-1.4-.47,1.72,1.72,0,0,1-.4-1.18l.18-3.12a13.65,13.65,0,0,1-3.41,3.74,7,7,0,0,1-4.17,1.37,5.81,5.81,0,0,1-2.42-.52,5.51,5.51,0,0,1-2-1.52,7.7,7.7,0,0,1-1.31-2.54,12,12,0,0,1-.48-3.58,15.72,15.72,0,0,1,4.25-10.76,14.69,14.69,0,0,1,3-2.45,14.51,14.51,0,0,1,3.59-1.6,14.25,14.25,0,0,1,4.07-.57,21.39,21.39,0,0,1,3.08.23,13.64,13.64,0,0,1,3,.8Zm-9.94-4.17a3.06,3.06,0,0,0,1.8-.62,7.26,7.26,0,0,0,1.66-1.73,14.92,14.92,0,0,0,1.44-2.59,22.89,22.89,0,0,0,1.16-3.21l.87-6.91c-.4,0-.77-.07-1.11-.07a7.2,7.2,0,0,0-3.43.85,9,9,0,0,0-2.74,2.28,10.92,10.92,0,0,0-1.82,3.35,12.19,12.19,0,0,0-.66,4,6.43,6.43,0,0,0,.76,3.52A2.38,2.38,0,0,0,1061.36,262.38Z" transform="translate(-859.92 -28.1)"/><path class="cls-1" d="M1076.4,266.55l2.74-22.88H1082a2,2,0,0,1,1.35.42,1.73,1.73,0,0,1,.48,1.36l-.16,3a12.48,12.48,0,0,1,3.86-3.82,8.41,8.41,0,0,1,4.37-1.26,5.56,5.56,0,0,1,2.3.46,4.73,4.73,0,0,1,1.77,1.34,6.16,6.16,0,0,1,1.14,2.16,9.79,9.79,0,0,1,.4,3c0,.28,0,.57,0,.86s0,.59-.08.9l-1.72,14.55h-5.5q.45-3.76.76-6.38c.21-1.75.38-3.2.51-4.36s.24-2.07.31-2.73.13-1.16.17-1.5.06-.57.07-.68,0-.21,0-.28a3.36,3.36,0,0,0-.54-2.13,2,2,0,0,0-1.67-.66,3.9,3.9,0,0,0-1.89.54,7,7,0,0,0-1.87,1.51,11.35,11.35,0,0,0-1.63,2.37,14.87,14.87,0,0,0-1.2,3.07l-1.25,11.23Z" transform="translate(-859.92 -28.1)"/><path class="cls-1" d="M1115.75,264.59a10.59,10.59,0,0,1-2.11,1.36,8.7,8.7,0,0,1-2.25.72,13.9,13.9,0,0,1-2.59.22,8.92,8.92,0,0,1-3.55-.68,7.39,7.39,0,0,1-2.66-1.93,8.45,8.45,0,0,1-1.66-3,12.66,12.66,0,0,1-.57-3.92,16,16,0,0,1,.89-5.32,14.25,14.25,0,0,1,2.5-4.45,12.21,12.21,0,0,1,3.81-3.08,10.31,10.31,0,0,1,4.81-1.15,8.51,8.51,0,0,1,3.87.81,8.41,8.41,0,0,1,2.84,2.4l-1.76,2.1a4.37,4.37,0,0,1-.46.37,1,1,0,0,1-.57.16,1.17,1.17,0,0,1-.69-.23c-.21-.16-.45-.32-.72-.5a5.21,5.21,0,0,0-1-.5,4.44,4.44,0,0,0-1.59-.24,4.67,4.67,0,0,0-2.43.69,6.76,6.76,0,0,0-2,2,10.54,10.54,0,0,0-1.4,3.06,13.91,13.91,0,0,0-.53,3.94,6,6,0,0,0,1.12,3.89,3.67,3.67,0,0,0,3,1.37,5.16,5.16,0,0,0,2.1-.37,7,7,0,0,0,1.42-.8l1-.8a1.54,1.54,0,0,1,1-.37,1.13,1.13,0,0,1,.53.14,1.78,1.78,0,0,1,.45.37l1.41,1.7A20.69,20.69,0,0,1,1115.75,264.59Z" transform="translate(-859.92 -28.1)"/><path class="cls-1" d="M1139.11,249a6.5,6.5,0,0,1-.61,2.81,5.71,5.71,0,0,1-2.2,2.27,15.41,15.41,0,0,1-4.29,1.73,44.7,44.7,0,0,1-6.9,1.15v.29c0,3.59,1.53,5.39,4.57,5.39a7,7,0,0,0,1.74-.19,7.35,7.35,0,0,0,1.33-.46,6.23,6.23,0,0,0,1-.6l.85-.6a6.25,6.25,0,0,1,.77-.46,1.9,1.9,0,0,1,.82-.19,1.19,1.19,0,0,1,.54.13,1.17,1.17,0,0,1,.44.36l1.41,1.7a23.23,23.23,0,0,1-2.32,2.05,12.69,12.69,0,0,1-2.32,1.42,10.72,10.72,0,0,1-2.49.83,14.38,14.38,0,0,1-2.88.27,9.36,9.36,0,0,1-3.63-.68,8.18,8.18,0,0,1-2.79-1.92,8.61,8.61,0,0,1-1.79-3,11.45,11.45,0,0,1-.64-3.91,16.14,16.14,0,0,1,.39-3.54,15.86,15.86,0,0,1,1.13-3.3,13.88,13.88,0,0,1,1.8-2.87,12.42,12.42,0,0,1,2.42-2.28,11.49,11.49,0,0,1,3-1.49,10.81,10.81,0,0,1,3.46-.53,8.85,8.85,0,0,1,3.15.51,7.21,7.21,0,0,1,2.26,1.32,5.36,5.36,0,0,1,1.34,1.82A4.77,4.77,0,0,1,1139.11,249Zm-7.51-1.78a4.68,4.68,0,0,0-2.07.46,5.6,5.6,0,0,0-1.73,1.28,8.22,8.22,0,0,0-1.34,2,11.81,11.81,0,0,0-.9,2.51,39.8,39.8,0,0,0,4.45-.83,10.78,10.78,0,0,0,2.6-1,2.93,2.93,0,0,0,1.23-1.14,2.84,2.84,0,0,0,.3-1.29,2,2,0,0,0-.14-.69,1.74,1.74,0,0,0-.45-.63,2.45,2.45,0,0,0-.78-.47A3.12,3.12,0,0,0,1131.6,247.21Z" transform="translate(-859.92 -28.1)"/></svg>