<svg id="Capa_1" data-name="Capa 1" xmlns="http://www.w3.org/2000/svg" viewBox="0 0 593 122"><defs><style>.cls-1{fill:#fff;}.cls-2{fill:#29abe2;}</style></defs><rect class="cls-1" width="593" height="122"/><path class="cls-2" d="M88.1,245.19a9.67,9.67,0,0,1-1.26-3.46,11.19,11.19,0,0,1,.58-5.29,15.64,15.64,0,0,1,1.8-3.88l0-.05a45.24,45.24,0,0,0,8.48-26.07C97.93,181,77,160.12,50.87,159.93S3.51,180.24,3.31,205.74s20.8,46.31,46.87,46.51a47.82,47.82,0,0,0,21.29-4.78c4.35-1.53,6.79-1.24,8.24-.61a18.78,18.78,0,0,0,2.57,1,15,15,0,0,0,3.93.6,9.84,9.84,0,0,0,3.08-.42c.4-.14.73-.28.95-.38A9.47,9.47,0,0,1,88.1,245.19ZM48.44,214.7h-11a16.93,16.93,0,0,0,0,2,9.22,9.22,0,0,0,.67,3.31,5.07,5.07,0,0,0,1.76,2.34,4.43,4.43,0,0,0,1.92.73h3.84v8.68h-6l-.81,0a22.13,22.13,0,0,1-3.66-.64,13.59,13.59,0,0,1-5.48-2.72,13.17,13.17,0,0,1-3.14-4A16.19,16.19,0,0,1,25,217.89a23.37,23.37,0,0,1,0-3.23V190.88s23.47,0,23.47,0Zm13.8,8.66-.82,0h-6v-8.68h3.83a4.5,4.5,0,0,0,1.93-.74,5,5,0,0,0,1.75-2.34,9.21,9.21,0,0,0,.67-3.3,13.67,13.67,0,0,0,0-2h-11V182.52s23.47,0,23.47,0v23.79a22,22,0,0,1,0,3.22A16.15,16.15,0,0,1,74.51,216,13.14,13.14,0,0,1,71.38,220a13.79,13.79,0,0,1-5.48,2.72A20.73,20.73,0,0,1,62.24,223.36Z" transform="translate(11.26 -139.15)"/><path class="cls-2" d="M42.21,206a3.41,3.41,0,1,0-3.4-3.4A3.4,3.4,0,0,0,42.21,206Z" transform="translate(11.26 -139.15)"/><ellipse class="cls-2" cx="70.08" cy="55.05" rx="3.4" ry="3.4"/><path class="cls-1" d="M25,214.66a23.37,23.37,0,0,0,0,3.23,16.19,16.19,0,0,0,1.52,6.45,13.17,13.17,0,0,0,3.14,4,13.59,13.59,0,0,0,5.48,2.72,22.13,22.13,0,0,0,3.66.64l.81,0h6v-8.68H41.79a4.43,4.43,0,0,1-1.92-.73A5.07,5.07,0,0,1,38.11,220a9.22,9.22,0,0,1-.67-3.31,16.93,16.93,0,0,1,0-2h11V190.9s-23.47,0-23.47,0Zm17.24-15.48a3.41,3.41,0,1,1-3.4,3.41A3.4,3.4,0,0,1,42.21,199.18Z" transform="translate(11.26 -139.15)"/><path class="cls-1" d="M76.06,182.49s-23.47,0-23.47,0v23.79h11a13.67,13.67,0,0,1,0,2,9.21,9.21,0,0,1-.67,3.3A5,5,0,0,1,61.16,214a4.5,4.5,0,0,1-1.93.74H55.4v8.68h6l.82,0a20.73,20.73,0,0,0,3.66-.63A13.79,13.79,0,0,0,71.38,220,13.14,13.14,0,0,0,74.51,216,16.15,16.15,0,0,0,76,209.5a22,22,0,0,0,0-3.22ZM58.82,197.6a3.4,3.4,0,1,1,3.39-3.4A3.4,3.4,0,0,1,58.82,197.6Z" transform="translate(11.26 -139.15)"/><path class="cls-2" d="M141.15,206.12v3.7a2.62,2.62,0,0,1-2.63,2.63H116.61v21.1a1.08,1.08,0,0,1-1.1,1.09l-6.79,0a1.09,1.09,0,0,1-1.08-1.1V176.08a1.09,1.09,0,0,1,1.09-1.1h31.12a1.09,1.09,0,0,1,1.1,1.1v6.77a1.09,1.09,0,0,1-1.1,1.09H117.7a1.1,1.1,0,0,0-1.1,1.1v18.45h21.91A2.63,2.63,0,0,1,141.15,206.12Z" transform="translate(11.26 -139.15)"/><path class="cls-2" d="M168.89,236.07h-.42a22.87,22.87,0,0,1-21.05-15.32l-.25-.71v-43.4a2.2,2.2,0,0,1,2.2-2.21h4.55a2.2,2.2,0,0,1,2.2,2.21V218a2.13,2.13,0,0,0,.19.89,13.74,13.74,0,0,0,25.17,0,2.28,2.28,0,0,0,.18-.89V176.64a2.21,2.21,0,0,1,2.2-2.21h4.55a2.21,2.21,0,0,1,2.21,2.21V220l-.25.71A22.74,22.74,0,0,1,168.89,236.07Z" transform="translate(11.26 -139.15)"/><path class="cls-2" d="M240.61,235.37q-17.81-21-35.6-42.11l0,40.8a.79.79,0,0,1-.79.79h-7.39a.79.79,0,0,1-.78-.79l.45-57.18a2.77,2.77,0,0,1,4.89-1.54l34.66,41.07a.79.79,0,0,0,1.39-.5V176.7a.78.78,0,0,1,.79-.78h7.39a.78.78,0,0,1,.78.78l-.93,56.66a3.14,3.14,0,0,1-1.44,2.37A3,3,0,0,1,240.61,235.37Z" transform="translate(11.26 -139.15)"/><line class="cls-2" x1="268.59" y1="36.2" x2="268.59" y2="95.51"/><rect class="cls-2" x="264.11" y="36.2" width="8.96" height="59.31" rx="3.21"/><line class="cls-2" x1="337.72" y1="36.2" x2="337.72" y2="95.51"/><rect class="cls-2" x="333.24" y="36.2" width="8.96" height="59.31" rx="3.21"/><path class="cls-2" d="M294.52,236.83h-24a2.49,2.49,0,0,1-2.49-2.49v-57a2.5,2.5,0,0,1,2.45-2.5l23-.37a2.54,2.54,0,0,1,.95.17l.37.15C309,180.38,318,194.44,316.59,209a33.37,33.37,0,0,1-20.74,27.48l-.37.15A2.42,2.42,0,0,1,294.52,236.83Zm-17.57-9h16.24a24.4,24.4,0,0,0,14.49-19.71c1-10.34-5.32-20.38-15.36-24.69l-15.37.25Z" transform="translate(11.26 -139.15)"/><path class="cls-2" d="M368.76,236.55a31.36,31.36,0,1,1,31.36-31.36A31.39,31.39,0,0,1,368.76,236.55Zm0-53.76a22.4,22.4,0,1,0,22.4,22.4A22.43,22.43,0,0,0,368.76,182.79Z" transform="translate(11.26 -139.15)"/><path class="cls-2" d="M432.16,237.23,417.1,198.44c-.48,1.38-1.12,3.39-1.74,5.86-2.62,10.43-6,24-7.27,29.27a2.12,2.12,0,0,1-2.08,1.6l-4.7-.08a2.11,2.11,0,0,1-2-2.61l14.23-57.8a2.11,2.11,0,0,1,4-.26l16.73,42.84L451.19,175a2.11,2.11,0,0,1,4,.25l14.7,57a2.11,2.11,0,0,1-2,2.63l-5.07,0a2.1,2.1,0,0,1-2-1.59q-4.41-17.21-8.8-34.41l-2.63,5-13.25,33.29A2.1,2.1,0,0,1,432.16,237.23Z" transform="translate(11.26 -139.15)"/><path class="cls-2" d="M524.89,233.12Q513,203.54,501.18,174a1.69,1.69,0,0,0-3.13,0L474.11,233a1.68,1.68,0,0,0,1.54,2.31l6,.09a1.66,1.66,0,0,0,1.59-1l3.33-8.22h25.89l3.3,8.21a1.71,1.71,0,0,0,1.56,1.06h6A1.68,1.68,0,0,0,524.89,233.12Zm-25.08-38.54q4.53,11.31,9.07,22.61H490.21q1.85-4.75,3.9-9.64Q496.92,200.85,499.81,194.58Z" transform="translate(11.26 -139.15)"/><path class="cls-2" d="M544,235.68a19.56,19.56,0,0,1-3.9-.37A20.42,20.42,0,0,1,525,221.48a1.67,1.67,0,0,1,1.21-2.14l5.47-1.31a1.68,1.68,0,0,1,2,1.1,11.38,11.38,0,0,0,8.23,7.4c3.49.69,8.29-.36,10.31-3.68,1.56-2.58,1-5.87.75-6.82a10.56,10.56,0,0,0-1.76-3.81c-1.3-1.78-2.53-2.31-5-3.38a41.25,41.25,0,0,1-7.91-4.29c-4.07-2.86-8.29-5.82-9.62-11.49a16.21,16.21,0,0,1,4.46-14.93c6.65-6.5,17.66-5.33,23.78-.14a17.19,17.19,0,0,1,4.58,6.2,1.67,1.67,0,0,1-1,2.25l-5.31,1.77a1.69,1.69,0,0,1-2-.81,8,8,0,0,0-2-2.58c-3-2.57-8.7-3.24-11.72-.29a7.25,7.25,0,0,0-2,6.49c.53,2.23,2.54,3.73,6,6.19a32.23,32.23,0,0,0,6.33,3.41c2.91,1.27,5.92,2.57,8.65,6.31a19.54,19.54,0,0,1,3.27,7.11c.52,2.27,1.38,8.14-1.83,13.45C556.3,233.33,549.78,235.68,544,235.68Z" transform="translate(11.26 -139.15)"/></svg>